<svg id="Слой_1" data-name="Слой 1" xmlns="http://www.w3.org/2000/svg" viewBox="0 0 1702.06 359.04"><defs><style>.cls-1{fill:#232e3c;}.cls-2{fill:#f4bb3a;}.cls-3{fill:#00a6bd;}</style></defs><title>лого</title><path class="cls-1" d="M288.76,430.56h53.82v165.3q0,27.85-13.24,48.72t-37,32.51q-23.75,11.63-55.31,11.62t-55.43-11.62q-23.74-11.62-36.92-32.51t-13.17-48.72V430.56h53.81v160.7a51.56,51.56,0,0,0,6.41,25.86,45.73,45.73,0,0,0,18.08,17.77q11.68,6.47,27.22,6.46t27.28-6.46a45.9,45.9,0,0,0,18-17.77,51.55,51.55,0,0,0,6.4-25.86Z" transform="translate(-131.54 -397.91)"/><path class="cls-1" d="M438.78,574.73V685.1H385.83V494.19h50.46v33.69h2.24a53.53,53.53,0,0,1,21.26-26.41q14.91-9.77,36.16-9.76,19.89,0,34.68,8.7a59.2,59.2,0,0,1,23,24.79q8.21,16.11,8.21,38.35V685.1h-53V573q.12-17.52-8.95-27.4t-25-9.88a37.55,37.55,0,0,0-18.83,4.6,31.56,31.56,0,0,0-12.68,13.36Q438.91,562.43,438.78,574.73Z" transform="translate(-131.54 -397.91)"/><path class="cls-1" d="M630.06,469.58a28.53,28.53,0,0,1-20.2-7.83,25.47,25.47,0,0,1,.06-37.84,29.81,29.81,0,0,1,40.34-.06,25.53,25.53,0,0,1,0,37.84A28.41,28.41,0,0,1,630.06,469.58ZM603.46,685.1V494.19h52.95V685.1Z" transform="translate(-131.54 -397.91)"/><path class="cls-1" d="M800.21,494.19V534h-115V494.19Zm-88.87-45.73h52.95v178q0,7.34,2.23,11.37a12.33,12.33,0,0,0,6.28,5.66,25.3,25.3,0,0,0,9.39,1.61,40.81,40.81,0,0,0,7.45-.68l5.72-1.06,8.33,39.4c-2.66.83-6.38,1.8-11.19,2.92A93.56,93.56,0,0,1,775,687.71q-19.15.75-33.5-5.09a46.84,46.84,0,0,1-22.31-18.15q-7.95-12.3-7.83-31.07Z" transform="translate(-131.54 -397.91)"/><path class="cls-1" d="M919.65,688.83q-29.46,0-50.65-12a81.1,81.1,0,0,1-32.62-34.06q-11.45-22-11.44-52.26,0-29.46,11.44-51.71a84.32,84.32,0,0,1,32.25-34.67q20.82-12.43,48.91-12.43a101,101,0,0,1,35.23,6,79.36,79.36,0,0,1,28.59,18.08q12.24,12.06,19.08,30.27t6.83,42.56V603.2H846.07V570.38H957.43a40.47,40.47,0,0,0-5-20.25,36.06,36.06,0,0,0-13.73-13.86,40,40,0,0,0-20.32-5,40.83,40.83,0,0,0-21.32,5.53,39.73,39.73,0,0,0-14.48,14.79,42.11,42.11,0,0,0-5.34,20.57v31.2q0,14.17,5.28,24.49a37.74,37.74,0,0,0,15,15.9q9.69,5.6,23,5.6a50,50,0,0,0,16.16-2.49,33.46,33.46,0,0,0,12.55-7.45,32.57,32.57,0,0,0,8-12.19l49,3.24a66.86,66.86,0,0,1-15.23,30.76q-11.5,13.11-29.58,20.38T919.65,688.83Z" transform="translate(-131.54 -397.91)"/><path class="cls-1" d="M1112.17,688.21A71.43,71.43,0,0,1,1072.84,677q-17.6-11.25-27.84-33.18t-10.26-53.88q0-32.82,10.57-54.63t28.15-32.69a72,72,0,0,1,38.59-10.87q16,0,26.78,5.41a53.26,53.26,0,0,1,17.41,13.42,70.48,70.48,0,0,1,10.13,15.72H1168v-95.7h52.82V685.1h-52.2V654.53h-2.23a68.16,68.16,0,0,1-10.51,15.72,52.94,52.94,0,0,1-17.52,12.87Q1127.59,688.21,1112.17,688.21ZM1129,646.08q12.81,0,21.69-7t13.67-19.7q4.79-12.68,4.79-29.7t-4.72-29.58q-4.73-12.55-13.68-19.39T1129,533.84q-13,0-22,7.09t-13.54,19.63q-4.61,12.57-4.6,29.09t4.66,29.39q4.66,12.75,13.55,19.89T1129,646.08Z" transform="translate(-131.54 -397.91)"/><path class="cls-2" d="M1646.29,685.1h-57.67l87.87-254.54h69.35l87.75,254.54h-57.67l-63.76-196.37h-2Zm-3.61-100.05h136.23v42H1642.68Z" transform="translate(-131.54 -397.91)"/><path class="cls-3" d="M1451.73,397.91a15.41,15.41,0,0,0,.93,1.52c7.8,10.16,12.21,21.6,11.79,34.58-.46,13.92-1.38,27.83-2,41.76-.81,17.37-1.85,34.73-2.25,52.11-.35,14.66,2.63,28.94,6.53,43a230.07,230.07,0,0,0,20.78,51.55c.51.91.9,1.36,2.08,1.07,3.47-.86,7-1.39,10.47-2.3a17.79,17.79,0,0,0,12.89-18.68c-.83-8.72-7.9-15.88-16.3-16.41a43,43,0,0,0-4.85.22c0-.66,0-1.26,0-1.83q3-25.72,6.06-51.44c1.19-10,1.91-20.16,3.78-30.07,6.44-34.05,24.61-59.82,54-77.38a8.74,8.74,0,0,1,1-.5c.1-.05.23,0,.49,0V628.74a56.07,56.07,0,0,1-56.21,56.06h-.67c-1.55,0-2.12.4-2.46,2q-7.8,36.64-37.13,59.38c-3.11,2.43-5.46,5.87-8.14,8.87a16.28,16.28,0,0,0-1.22,1.86c-3.08-5.74-7.74-9.5-12.42-13.39-17.88-14.84-29.19-33.85-34-56.84-.31-1.51-.88-1.93-2.38-1.93h-.55a56.06,56.06,0,0,1-56.24-56.06V424.84c1,.6,1.88,1.1,2.73,1.63,30.74,19.09,48.81,46.76,53.55,83.12,3.23,24.87,5.88,49.83,8.79,74.74.07.6.09,1.2.15,1.89-1.92,0-3.73-.15-5.51,0a17.87,17.87,0,0,0-2.44,35c3.42.84,6.87,1.52,10.32,2.16a2,2,0,0,0,1.63-.81,227.75,227.75,0,0,0,26.56-79c1.65-11.54,1.23-23.15.63-34.74-1.23-23.95-2.64-47.9-4-71.86a54.38,54.38,0,0,1,12.32-38.25,9.46,9.46,0,0,0,.57-.92Zm-87.81,65-.76.32V591.68a12.18,12.18,0,0,1,0,1.48c-.14,1.34.35,1.89,1.74,1.82a61.14,61.14,0,0,1,6.35,0c1.4.08,2-.44,2.41-1.8a34.79,34.79,0,0,1,16.24-20.28,2.51,2.51,0,0,0,1.46-2.9c-2.11-17.69-4.33-35.36-6.17-53.07-1.55-14.87-5.36-28.93-13-41.75C1369.63,470.94,1366.68,467,1363.92,462.87Zm175.56.13c-.42.09-.58.07-.64.14-.3.31-.58.63-.85,1a95.81,95.81,0,0,0-16.9,32.67c-2.61,8.73-3.33,17.77-4.39,26.76q-2.75,23.4-5.44,46.82a1.9,1.9,0,0,0,1,2.28,35.13,35.13,0,0,1,16.82,20.92,1.7,1.7,0,0,0,2,1.41c1.93-.06,3.87,0,5.81,0,2.65,0,2.65,0,2.65-2.7q0-63.45,0-126.9ZM1363.3,613V629.2a37.44,37.44,0,0,0,37.44,37.44h1.46c1.17-8.77,2.33-17.34,3.51-26.13-.49-.13-1.36-.33-2.22-.58-3.49-1-7.13-1.65-10.42-3.12-9.7-4.37-16.22-11.84-19.5-22.16-.25-.79-.29-1.69-1.53-1.67C1369.2,613.05,1363.3,613,1363.3,613Zm133.07,27.62c.23,1,.4,1.78.58,2.55a90.85,90.85,0,0,1,2.73,21.59c0,1.66.5,2.05,2.07,2.05h.35a37.46,37.46,0,0,0,37.3-37.16c0-5.41.06-10.48.06-14.45,0-.3,0-.61,0-.92.08-1.16-.59-1.41-1.9-1.24a20.59,20.59,0,0,1-5.49,0c-1.93-.26-2.62.17-3.17,1.8-4.06,12.12-12.08,20.12-24.21,23.71C1502,639.32,1499.3,639.9,1496.37,640.63Zm-25.82-12.42a216.92,216.92,0,0,1-19.31-44.31,211.26,211.26,0,0,1-19.18,44.31,41,41,0,0,1,19.23,13.19A41.36,41.36,0,0,1,1470.55,628.21Zm-10.31,56.71v37.42A81.3,81.3,0,0,0,1480,684.92Zm-37.78-.08A82.44,82.44,0,0,0,1442,721.93l.49-.15v-2.35q0-16.17,0-32.33c0-.37.12-.81,0-1.1-.25-.44-.67-1.11-1-1.11C1435.22,684.82,1429.06,684.84,1422.46,684.84Zm9-18.06c3.09,0,6.18,0,9.27,0,1.34,0,1.79-.41,1.71-1.83-.54-9.23-8.32-18.3-17.27-20.06-1.07-.21-1.65,0-2,1.17a84,84,0,0,0-2.67,19c0,1.27.37,1.75,1.65,1.72C1425.27,666.73,1428.36,666.78,1431.45,666.78Zm39.65,0c3.09,0,6.18-.06,9.26,0,1.4,0,1.74-.48,1.71-1.83a85.18,85.18,0,0,0-2.68-18.79c-.29-1.15-.75-1.49-1.9-1.26-9.07,1.8-16.84,10.8-17.38,20.13-.08,1.28.25,1.77,1.56,1.74C1464.81,666.73,1468,666.78,1471.1,666.78Z" transform="translate(-131.54 -397.91)"/></svg>